# xmcd
#
# Track frame offsets: 
#        150
#        21540
#        37650
#        69342
#        84042
#        103375
#        119820
#        143745
#        157545
#        176357
#        192350
#
# Disc length: 2717 seconds
#
# Revision: 4
# Processed by: cddbd v1.5.2PL0 Copyright (c) Steve Scherf et al.
# Submitted via: ExactAudioCopy v0.99pb5
#
DISCID=860a9b0b
DTITLE=Deanna Bogart - The Great Unknown
DYEAR=1998
DGENRE=Blues
TTITLE0=Sittin' On A Mountain
TTITLE1=Love Funk
TTITLE2=Wrong Side Of Love
TTITLE3=Won't Be Long
TTITLE4=Lovin' Me
TTITLE5=O.K. I'll Play The Blues
TTITLE6=Life Of The Party
TTITLE7=But You Know
TTITLE8=The Great Unknown
TTITLE9=Peephole
TTITLE10=Adam Bomb Boogie
EXTD=
EXTT0=
EXTT1=
EXTT2=
EXTT3=
EXTT4=
EXTT5=
EXTT6=
EXTT7=
EXTT8=
EXTT9=
EXTT10=
PLAYORDER=
